# xmcd
#
# Track frame offsets: 
#        150
#        13885
#        26460
#        36282
#        46592
#        56280
#        65062
#        75997
#        87582
#        101547
#        111080
#        124670
#        134895
#        144410
#        157267
#        168552
#
# Disc length: 2420 seconds
#
# Revision: 7
# Processed by: cddbd v1.5.2PL0 Copyright (c) Steve Scherf et al.
# Submitted via: ExactAudioCopy v1.0b4
#
DISCID=da097210
DTITLE=Slim Harpo - The Best Of Slim Harpo
DYEAR=1997
DGENRE=Blues
TTITLE0=I'm A King Bee
TTITLE1=I've Got Love If You Want It
TTITLE2=Wonderin' And Worryin'
TTITLE3=You'll Be Sorry One Day
TTITLE4=Strange Love
TTITLE5=Bobby Sox Baby
TTITLE6=One More Day
TTITLE7=Rainin' In My Heart
TTITLE8=Blues Hangover
TTITLE9=Buzzin'
TTITLE10=Still Rainin' In My Heart
TTITLE11=Snoopin' Around
TTITLE12=Te Ni Nee Ni Nu
TTITLE13=Tip On In, Part 1
TTITLE14=Shake Your Hips
TTITLE15=Baby, Scratch My Back
EXTD=Slim Harpo =James Moore (1924-01-11/1970-01-31]\nCD: Hip-O Recor
EXTD=ds HIPD-40072 (1997-11-04), UPC 076744007223.
EXTT0=(James Moore]\nSlim Harpo: harmonica, vocal\nGuitar Gable: guita
EXTT0=r\nClinton "Fats" Perrodin: bass\nClarence "Jockey" Etienne: dru
EXTT0=ms\nRecorded Crowley US-LA, 1957-03 - Excello 2113.
EXTT1=(James Moore]\nSlim Harpo: harmonica, vocal\nGuitar Gable: guita
EXTT1=r\nClinton "Fats" Perrodin: bass\nClarence "Jockey" Etienne: dru
EXTT1=ms\nRecorded Crowley US-LA, 1957-03 - Excello 2113.
EXTT2=(James Moore/Jerry West]\nSlim Harpo: harmonica, vocal\nGuitar G
EXTT2=able: guitar\nClinton "Fats" Perrodin: bass\nClarence "Jockey" E
EXTT2=tienne: drums\nRecorded Crowley US-LA, 1957-11-05 - Excello 2138.
EXTT3=(James Moore]\nSlim Harpo: harmonica, vocal\nClinton "Fats" Perr
EXTT3=odin: guitar\nClarence "Jockey" Etienne: drums\nunknown bass\nRe
EXTT3=corded Crowley US-LA, 1959-05 - Excello 2162.
EXTT4=(Jerry West]\nSlim Harpo: harmonica, vocal\nGuitar Gable: guitar
EXTT4=\nClinton "Fats" Perrodin: bass\nClarence "Jockey" Etienne: drum
EXTT4=s\nRecorded Crowley US-LA, 1957-11-05 - Excello 2138.
EXTT5=(James Moore/Jerry West]\nSlim Harpo: vocal\nRudolph Richard, Ja
EXTT5=mes Johnson: guitars\nSonny Martin: piano\nT.J. Kitchen: bass\nS
EXTT5=ammy K. Brown: drums\nRecorded Crowley US-LA, 1959-12 - Excello L
EXTT5=P 8003.
EXTT6=(Jerry West]\nSlim Harpo: harmonica, vocal\nClinton "Fats" Perro
EXTT6=din: guitar\nClarence "Jockey" Etienne: drums\nRecorded Crowley 
EXTT6=US-LA, 1959-05 - Excello 2162.
EXTT7=(James Moore/Jerry West]\nSlim Harpo: harmonica, vocal\nRudolph 
EXTT7=Richard, James Johnson: guitars\nT.J. Kitchen: bass\nSammy K. Br
EXTT7=own: drums\nRecorded Crowley US-LA, 1960-11 - Excello 2194.
EXTT8=(James Moore/Jerry West]\nSlim Harpo: harmonica, vocal\nWillie "
EXTT8=Tomcat" Parker: sax\nClinton "Fats" Perrodin: guitar\nClarence "
EXTT8=Jockey" Etienne: drums\nRecorded Crowley US-LA, 1960-06 - Excello
EXTT8=2184.
EXTT9=(James Moore]\nSlim Harpo: harmonica\nWillie "Tomcat" Parker and
EXTT9=/or Peter Gunter, Boo Boo Guidry or Harry Simoneaux, Bobby Fran:
EXTT9=saxes\nAl Foreman: guitar\nRufus Thibodeaux: bass\nAustin Brous
EXTT9=sard: drums\nRecorded Crowley US-LA, 1963-09 - Excello 2239.
EXTT10=(James Moore]\nSlim Harpo: harmonica, vocal\nWillie "Tomcat" Pa
EXTT10=rker: sax\nJames Johnson, Rudolph Richard: guitars\nGeese Augus
EXTT10=t: bass\nSammy K. Brown: drums\nRecorded New Orleans US-LA, 196
EXTT10=1-06-27 - Excello 2253.
EXTT11=(James Moore/Jerry West]\nSlim Harpo: harmonica\nWillie "Tomcat
EXTT11=" Parker: sax\nRudolph Richard, James Johnson: guitars\nKatie W
EXTT11=ebster: piano\nT.J. Kitchen: bass\nSammy K. Brown: drums\nRecor
EXTT11=ded Crowley US-LA, 1960-11 - Excello LP 8003.
EXTT12=(James Moore]\nSlim Harpo: harmonica, vocal\nJames Johnson, Rud
EXTT12=olph Richard: guitars\nGeese August: bass\nSammy Brown: drums\n
EXTT12=Recorded Nashville US-TN, 1967 - Excello 2294.
EXTT13=(James Moore/Jerry West]\nSlim Harpo: harmonica, vocal\nJames J
EXTT13=ohnson, Rudolph Richard: guitars\nGeese August: bass\nSammy Bro
EXTT13=wn: drums\nRecorded Memphis US-TN, early 1967 - Excello 2285.
EXTT14=(James Moore]\nSlim Harpo: harmonica, vocal\nWillie "Tomcat" Pa
EXTT14=rker: sax\nJames Johnson, Rudolph Richard: guitars\nKatie Webst
EXTT14=er: organ\nGeese August: bass\nSammy K. Brown: drums\nRecorded 
EXTT14=Crowley US-LA, 1966-02 - Excello 2278.
EXTT15=(James Moore]\nSlim Harpo: harmonica, vocal\nJames Johnson, Rud
EXTT15=olph Richard: guitars\nGeese August: bass\nSammy K. Brown: drum
EXTT15=s\nposs. Monroe Vincent: percussion\nRecorded Crowley US-LA, 19
EXTT15=65-10 - Excello 2273.
PLAYORDER=
